<svg xmlns="http://www.w3.org/2000/svg" viewBox="0 0 1916.5 601.5"><defs><style>.cls-1,.cls-2{fill:#1f1293;}.cls-2{opacity:0.93;}</style></defs><title>Asset 2</title><g id="Layer_2" data-name="Layer 2"><g id="Layer_1-2" data-name="Layer 1"><path class="cls-1" d="M1916.5,376.19V601.5H1.5v-6.08c55.18-50,191.67-26.48,440-84.23,129.89-30.2,268.06-62.34,404-155.07a683.53,683.53,0,0,0,74.19-59.3c27.22-25.85,43.13-46.28,54.81-60.2h0C976,235.23,1043.7,167.39,1101,123,1147.59,87,1245,11.67,1378.5,1.27c51-4,97.27,2.31,117,5.48a510.89,510.89,0,0,1,120,34.66c57.21,24.26,189.44,89.65,262,227.14A415.84,415.84,0,0,1,1916.5,376.19Z"/><path class="cls-2" d="M1124,599H0V165.06c54.42,34.23,106.05,77.29,147.43,111.8l.18.14s48.59,49,86.49,93c66.48,77.15,72,106.24,100.32,108,28.94,1.8,51.25-26.84,77.27-57C430,399.82,546.39,264.83,602,241,666,213.53,804.41,267.28,1124,599Z"/></g></g></svg>